{
  "accessors": [
    {
      "bufferView": 2,
      "componentType": 5126,
      "count": 65532,
      "max": [
        11.754186630249023,
        10.613851547241211,
        27.8238468170166
      ],
      "min": [
        -9.624007225036621,
        -14.465269088745117,
        -0.6773474216461182
      ],
      "type": "VEC3"
    },
    {
      "bufferView": 2,
      "byteOffset": 786384,
      "componentType": 5126,
      "count": 65532,
      "max": [
        0.9995308518409729,
        0.9997219443321228,
        0.9999921321868896
      ],
      "min": [
        -0.9999470710754395,
        -0.9999709129333496,
        -1.0
      ],
      "type": "VEC3"
    },
    {
      "bufferView": 1,
      "componentType": 5126,
      "count": 65532,
      "max": [
        0.9993590712547302,
        0.9996336698532104
      ],
      "min": [
        0.0003662109375,
        0.0006192518630996346
      ],
      "type": "VEC2"
    },
    {
      "bufferView": 0,
      "componentType": 5125,
      "count": 274419,
      "type": "SCALAR"
    },
    {
      "bufferView": 2,
      "byteOffset": 1572768,
      "componentType": 5126,
      "count": 51756,
      "max": [
        11.761275291442871,
        10.627307891845703,
        32.948951721191406
      ],
      "min": [
        -9.624422073364258,
        -14.465269088745117,
        -0.6773479580879211
      ],
      "type": "VEC3"
    },
    {
      "bufferView": 2,
      "byteOffset": 2193840,
      "componentType": 5126,
      "count": 51756,
      "max": [
        1.0,
        0.9999565482139587,
        0.999962568283081
      ],
      "min": [
        -0.9999814033508301,
        -0.9999985098838806,
        -1.0
      ],
      "type": "VEC3"
    },
    {
      "bufferView": 1,
      "byteOffset": 524256,
      "componentType": 5126,
      "count": 51756,
      "max": [
        0.9993636608123779,
        0.9996336698532104
      ],
      "min": [
        0.0003662109375,
        0.000622351304627955
      ],
      "type": "VEC2"
    },
    {
      "bufferView": 0,
      "byteOffset": 1097676,
      "componentType": 5125,
      "count": 184158,
      "type": "SCALAR"
    },
    {
      "bufferView": 2,
      "byteOffset": 2814912,
      "componentType": 5126,
      "count": 49470,
      "max": [
        11.761275291442871,
        10.627311706542969,
        32.91901397705078
      ],
      "min": [
        -9.624422073364258,
        -14.465307235717773,
        -0.6773485541343689
      ],
      "type": "VEC3"
    },
    {
      "bufferView": 2,
      "byteOffset": 3408552,
      "componentType": 5126,
      "count": 49470,
      "max": [
        0.9999954700469971,
        0.9999962449073792,
        0.9999871253967285
      ],
      "min": [
        -0.9999961853027344,
        -0.9999971389770508,
        -1.0
      ],
      "type": "VEC3"
    },
    {
      "bufferView": 1,
      "byteOffset": 938304,
      "componentType": 5126,
      "count": 49470,
      "max": [
        1.9990355968475342,
        0.9434813261032104
      ],
      "min": [
        1.0003662109375,
        0.000768084661103785
      ],
      "type": "VEC2"
    },
    {
      "bufferView": 0,
      "byteOffset": 1834308,
      "componentType": 5125,
      "count": 240087,
      "type": "SCALAR"
    }
  ],
  "asset": {
    "extras": {
      "author": "matousekfoto (https://sketchfab.com/matousekfoto)",
      "license": "CC-BY-4.0 (http://creativecommons.org/licenses/by/4.0/)",
      "source": "https://sketchfab.com/3d-models/buddha-statue-da6f055f8cc044728152b0dae4420cc3",
      "title": "Buddha statue"
    },
    "generator": "Sketchfab-14.32.1",
    "version": "2.0"
  },
  "bufferViews": [
    {
      "buffer": 0,
      "byteLength": 2794656,
      "name": "floatBufferViews",
      "target": 34963
    },
    {
      "buffer": 0,
      "byteLength": 1334064,
      "byteOffset": 2794656,
      "byteStride": 8,
      "name": "floatBufferViews",
      "target": 34962
    },
    {
      "buffer": 0,
      "byteLength": 4002192,
      "byteOffset": 4128720,
      "byteStride": 12,
      "name": "floatBufferViews",
      "target": 34962
    }
  ],
  "buffers": [
    {
      "byteLength": 8130912,
      "uri": "scene.bin"
    }
  ],
  "extensionsUsed": [
    "KHR_materials_unlit"
  ],
  "images": [
    {
      "uri": "textures/zoo-buddha_u1_v1_baseColor.jpeg"
    },
    {
      "uri": "textures/zoo-buddha_u2_v1_baseColor.jpeg"
    }
  ],
  "materials": [
    {
      "doubleSided": true,
      "extensions": {
        "KHR_materials_unlit": {}
      },
      "name": "zoo-buddha_u1_v1",
      "pbrMetallicRoughness": {
        "baseColorTexture": {
          "index": 0
        },
        "metallicFactor": 0.0
      }
    },
    {
      "doubleSided": true,
      "extensions": {
        "KHR_materials_unlit": {}
      },
      "name": "zoo-buddha_u2_v1",
      "pbrMetallicRoughness": {
        "baseColorTexture": {
          "index": 1
        },
        "metallicFactor": 0.0
      }
    }
  ],
  "meshes": [
    {
      "name": "zoo-buddha_zoo-buddha_u1_v1_0",
      "primitives": [
        {
          "attributes": {
            "NORMAL": 1,
            "POSITION": 0,
            "TEXCOORD_0": 2
          },
          "indices": 3,
          "material": 0,
          "mode": 4
        }
      ]
    },
    {
      "name": "zoo-buddha_zoo-buddha_u1_v1_0",
      "primitives": [
        {
          "attributes": {
            "NORMAL": 5,
            "POSITION": 4,
            "TEXCOORD_0": 6
          },
          "indices": 7,
          "material": 0,
          "mode": 4
        }
      ]
    },
    {
      "name": "zoo-buddha_zoo-buddha_u2_v1_0",
      "primitives": [
        {
          "attributes": {
            "NORMAL": 9,
            "POSITION": 8,
            "TEXCOORD_0": 10
          },
          "indices": 11,
          "material": 1,
          "mode": 4
        }
      ]
    }
  ],
  "nodes": [
    {
      "children": [
        1
      ],
      "matrix": [
        0.0357142873108387,
        0.0,
        0.0,
        0.0,
        0.0,
        7.930164816114238e-18,
        -0.0357142873108387,
        0.0,
        0.0,
        0.0357142873108387,
        7.930164816114238e-18,
        0.0,
        0.0,
        0.0,
        0.0,
        1.0
      ],
      "name": "Sketchfab_model"
    },
    {
      "children": [
        2
      ],
      "matrix": [
        0.009999999776482582,
        0.0,
        0.0,
        0.0,
        0.0,
        0.0,
        0.009999999776482582,
        0.0,
        0.0,
        -0.009999999776482582,
        0.0,
        0.0,
        0.0,
        0.0,
        0.0,
        1.0
      ],
      "name": "zoo-buddha.fbx"
    },
    {
      "children": [
        3
      ],
      "name": "RootNode"
    },
    {
      "children": [
        4,
        5,
        6
      ],
      "matrix": [
        7.549789959870878e-06,
        1.1102230246251565e-14,
        99.99999999999972,
        0.0,
        99.99999999999962,
        -4.371139006309477e-06,
        -7.549789954319763e-06,
        0.0,
        4.371139006309477e-06,
        99.99999999999991,
        -3.552713678800501e-13,
        0.0,
        0.0,
        0.0,
        0.0,
        1.0
      ],
      "name": "zoo-buddha"
    },
    {
      "mesh": 0,
      "name": "zoo-buddha_zoo-buddha_u1_v1_0"
    },
    {
      "mesh": 1,
      "name": "zoo-buddha_zoo-buddha_u1_v1_0"
    },
    {
      "mesh": 2,
      "name": "zoo-buddha_zoo-buddha_u2_v1_0"
    }
  ],
  "samplers": [
    {
      "magFilter": 9729,
      "minFilter": 9987,
      "wrapS": 10497,
      "wrapT": 10497
    }
  ],
  "scene": 0,
  "scenes": [
    {
      "name": "Sketchfab_Scene",
      "nodes": [
        0
      ]
    }
  ],
  "textures": [
    {
      "sampler": 0,
      "source": 0
    },
    {
      "sampler": 0,
      "source": 1
    }
  ]
}
